<svg width="43" height="41" viewBox="0 0 43 41" fill="none" xmlns="http://www.w3.org/2000/svg">
<path d="M34.7761 32.0783C35.5386 31.9817 36.3118 32.1353 36.9794 32.5161C37.647 32.8969 38.1729 33.4842 38.478 34.1896C38.8513 35.0515 38.8669 36.0264 38.5214 36.8998C38.1758 37.7733 37.4975 38.4737 36.6356 38.847C36.2085 39.0327 35.749 39.1324 35.2833 39.1403C34.8177 39.1482 34.3551 39.0641 33.9219 38.893C33.4888 38.7219 33.0937 38.467 32.7591 38.143C32.4246 37.8189 32.1573 37.4321 31.9725 37.0046C31.7659 36.5326 31.6654 36.021 31.6783 35.5059C31.6912 34.9908 31.817 34.4848 32.0469 34.0237M16.7129 34.0351H32.0697M20.0314 29.475C19.5245 28.8122 18.874 28.2727 18.1288 27.8972C17.3837 27.5216 16.5631 27.3197 15.7287 27.3065C12.496 27.3065 9.86978 30.316 9.86978 34.0294V34.3956H13.3028M41.3846 34.756C41.3831 33.1227 40.7331 31.5568 39.5777 30.4024C38.4222 29.248 36.8557 28.5996 35.2224 28.5996M20.0886 34.3956C20.2012 34.7529 20.2591 35.1252 20.2603 35.4998C20.2603 36.4397 19.8873 37.3411 19.2233 38.0062C18.5593 38.6713 17.6584 39.0457 16.7186 39.0473C15.7778 39.0473 14.8754 38.6735 14.2102 38.0083C13.5449 37.343 13.1712 36.4407 13.1712 35.4998C13.1714 35.1247 13.2313 34.7519 13.3485 34.3956M37.4767 29.0267L34.4099 17.6026C34.4099 17.6026 37.2249 17.5396 36.4353 13.6604M11.0198 30.0815V23.9822C11.0153 23.7307 11.0604 23.4809 11.1526 23.2469C11.2449 23.0129 11.3823 22.7995 11.5572 22.6187C11.7321 22.438 11.9409 22.2936 12.1717 22.1937C12.4025 22.0939 12.6508 22.0406 12.9022 22.0368H17.5139C17.8829 22.0323 18.2482 22.1107 18.583 22.2661C18.9177 22.4216 19.2132 22.6502 19.4478 22.9351C20.0886 23.7304 24.0652 29.6123 24.0652 29.6123H29.6724C29.9627 29.6076 30.2491 29.5437 30.5139 29.4245C30.7787 29.3053 31.0164 29.1333 31.2125 28.9191C31.4085 28.7048 31.5588 28.4528 31.654 28.1785C31.7493 27.9042 31.7876 27.6133 31.7665 27.3236L30.3532 15.8803C30.3331 15.7036 30.3505 15.5247 30.4043 15.3552C30.458 15.1856 30.5469 15.0293 30.6652 14.8965C30.7834 14.7637 30.9284 14.6573 31.0905 14.5843C31.2527 14.5113 31.4284 14.4733 31.6063 14.4728H32.7506M29.9928 11.9381H28.4308M25.6443 29.6123V24.068C25.6443 22.6264 25.0717 21.2439 24.0523 20.2245C23.033 19.2051 21.6504 18.6325 20.2088 18.6325H14.9735M8.9486 39.1445H16.7129M24.8662 39.1445H34.7875M6.65423 30.8539H10.2474M1.14429 25.3954H6.31665M25.3754 7.02897C24.9394 7.43546 24.405 7.72138 23.8248 7.85861C22.9468 8.05681 22.026 7.90221 21.2609 7.42813C20.4957 6.95404 19.9473 6.19839 19.7339 5.32392C19.5355 4.44666 19.6893 3.52659 20.1622 2.76155C20.6351 1.99652 21.3894 1.44764 22.2629 1.23295C22.7099 1.12948 23.1731 1.11668 23.6252 1.1953C24.0772 1.27392 24.5089 1.44237 24.8948 1.69068C25.3352 1.96108 25.6994 2.33914 25.9533 2.78924C26.1764 3.21836 26.268 3.75047 26.6628 4.06516C27.2979 4.57439 28.2419 4.27114 28.8885 3.95073M24.1338 14.9935L22.2571 19.0387M29.5637 11.9153H28.2305C27.8516 11.9159 27.482 11.7976 27.174 11.5768C26.866 11.3561 26.6352 11.0442 26.514 10.6851C26.2622 10.1083 25.8875 9.59345 25.4161 9.17642C24.9447 8.75939 24.388 8.45025 23.7848 8.27057C22.1905 7.63613 20.4182 7.61168 18.807 8.20191C17.4946 8.72408 16.4017 9.68164 15.7116 10.914C15.2089 11.8189 14.945 12.8369 14.9449 13.8721V18.6153H20.0314M22.589 11.9153C22.589 11.9153 23.4186 17.9172 30.3418 16.0234M26.5598 3.97934C26.5598 3.97934 22.978 5.055 19.9799 3.0696M8.69685 12.2185H13.6861C14.0276 12.2185 14.355 12.3541 14.5964 12.5956C14.8379 12.837 14.9735 13.1644 14.9735 13.5059V20.7495C14.9735 21.0909 14.8379 21.4183 14.5964 21.6598C14.355 21.9012 14.0276 22.0368 13.6861 22.0368H5.01784C4.67641 22.0368 4.34896 21.9012 4.10753 21.6598C3.8661 21.4183 3.73047 21.0909 3.73047 20.7495V17.1677C3.73501 15.8535 4.26026 14.5947 5.19114 13.667C6.12203 12.7394 7.38265 12.2185 8.69685 12.2185Z" stroke="#E95322" stroke-width="2.28866" stroke-linecap="round" stroke-linejoin="round"/>
</svg>
