<svg width="43" height="31" viewBox="0 0 43 31" fill="none" xmlns="http://www.w3.org/2000/svg">
<path d="M1.44458 22.0285V22.693C1.44611 24.3181 2.09272 25.8762 3.24238 27.0248C4.39203 28.1734 5.95073 28.8185 7.57582 28.8185H35.3135C36.9386 28.8185 38.4971 28.1734 39.6468 27.0248C40.7964 25.8762 41.443 24.3181 41.4446 22.693V7.57606C41.4446 6.77091 41.286 5.97361 40.9779 5.22975C40.6698 4.48588 40.2181 3.80998 39.6488 3.24064C39.0794 2.67131 38.4035 2.21964 37.6597 1.91152C36.9158 1.6034 36.1186 1.44482 35.3135 1.44482H7.57582C6.77066 1.44482 5.97337 1.6034 5.2295 1.91152C4.48563 2.21964 3.80973 2.67131 3.2404 3.24064C2.67107 3.80998 2.2194 4.48588 1.91128 5.22975C1.60316 5.97361 1.44458 6.77091 1.44458 7.57606V21.9533M1.45614 8.04989H41.4273M7.06723 15.4639H10.3842M7.06723 21.2022H15.088M25.5359 21.2022H28.824M32.9499 21.2022H36.238" stroke="#E95322" stroke-width="2.88934" stroke-linecap="round" stroke-linejoin="round"/>
</svg>
