<svg width="34" height="40" viewBox="0 0 34 40" fill="none" xmlns="http://www.w3.org/2000/svg">
<path d="M26.358 15.269V6.63874C26.358 5.20412 25.788 3.82819 24.7736 2.81375C23.7592 1.79932 22.3834 1.22949 20.9487 1.22949H10.4794C9.7469 1.22899 9.04241 1.51071 8.51236 2.01622L2.05076 8.37956C1.81722 8.61168 1.6288 8.88508 1.49508 9.18598C1.31867 9.55606 1.22789 9.96108 1.22951 10.371V32.6277C1.22951 34.0623 1.79946 35.4382 2.81389 36.4526C3.82833 37.4671 5.20414 38.0369 6.63876 38.0369H20.9634C22.1086 38.0351 23.2238 37.6699 24.1481 36.9939C25.0725 36.3178 25.7584 35.3659 26.1072 34.2751M15.3378 8.95978H21.7158M5.56676 15.2689H21.7158M22.2863 22.655H32.2294M28.8462 19.4046L31.6885 21.5633C31.8566 21.6908 31.993 21.8555 32.0868 22.0445C32.1807 22.2334 32.2295 22.4416 32.2295 22.6526C32.2295 22.8635 32.1807 23.0717 32.0868 23.2606C31.993 23.4496 31.8566 23.6143 31.6885 23.7418L28.8462 25.9006M27.6316 30.169H17.713M21.0717 33.4145L18.2686 31.2852C18.0955 31.1546 17.9551 30.9855 17.8584 30.7914C17.7616 30.5973 17.7113 30.3834 17.7113 30.1665C17.7113 29.9496 17.7616 29.7357 17.8584 29.5416C17.9551 29.3475 18.0955 29.1785 18.2686 29.0478L21.0717 26.9185M9.32374 1.49998V5.58141C9.32438 6.05711 9.23125 6.52838 9.04965 6.96806C8.86805 7.40774 8.60153 7.80728 8.26538 8.14389C7.92924 8.48049 7.53007 8.74746 7.09063 8.92965C6.6512 9.11185 6.18017 9.20566 5.70447 9.20566H1.50982C1.64355 8.90477 1.83197 8.63137 2.0655 8.39925L8.52711 2.03591C8.75941 1.81221 9.029 1.63089 9.32374 1.49998Z" stroke="#E95322" stroke-width="2.45875" stroke-linecap="round" stroke-linejoin="round"/>
</svg>
